<?xml version="1.0" encoding="utf-8"?>
<!-- Generator: Adobe Illustrator 16.2.0, SVG Export Plug-In . SVG Version: 6.00 Build 0)  -->
<!DOCTYPE svg PUBLIC "-//W3C//DTD SVG 1.1//EN" "http://www.w3.org/Graphics/SVG/1.1/DTD/svg11.dtd">
<svg version="1.1" id="Слой_1" xmlns="http://www.w3.org/2000/svg" xmlns:xlink="http://www.w3.org/1999/xlink" x="0px" y="0px"
	 width="32px" height="42px" viewBox="0 0 32 42" enable-background="new 0 0 32 42" xml:space="preserve">
<path fill-rule="evenodd" clip-rule="evenodd" fill="#E2F0F5" d="M2.582,0H29.46c1.421,0,2.582,1.162,2.582,2.582v36.75
	c0,1.42-1.161,2.582-2.582,2.582H2.582C1.162,41.913,0,40.751,0,39.331V2.581C0,1.161,1.162,0,2.582,0z"/>
<path fill-rule="evenodd" clip-rule="evenodd" fill="#BDD2DA" d="M15.946,0H29.46c1.421,0,2.582,1.162,2.582,2.582v36.75
	c0,1.42-1.161,2.582-2.582,2.582H15.946V0z"/>
<path fill-rule="evenodd" clip-rule="evenodd" fill="#8470B3" d="M32.042,31.13v8.201c0,1.42-1.161,2.582-2.582,2.582H2.582
	C1.162,41.913,0,40.751,0,39.331V31.13H32.042z"/>
<path fill-rule="evenodd" clip-rule="evenodd" fill="#685294" d="M32.042,31.13v8.201c0,1.42-1.161,2.582-2.582,2.582H15.946V31.13
	H32.042z"/>
<polygon fill-rule="evenodd" clip-rule="evenodd" fill="#8470B3" points="7.547,6.614 24.338,6.614 24.338,20.956 19.925,25.37 
	7.547,25.37 "/>
<polygon fill-rule="evenodd" clip-rule="evenodd" fill="#685294" points="15.959,6.614 24.338,6.614 24.338,20.956 19.925,25.37 
	15.959,25.37 "/>
<polygon fill-rule="evenodd" clip-rule="evenodd" fill="#8470B3" points="19.935,25.359 19.935,20.962 24.332,20.962 "/>
<path fill-rule="evenodd" clip-rule="evenodd" fill="#FFFFFF" d="M11.179,6.636l3.801,5.507c0.354,0.514,0.487,1.112,0.414,1.661
	c-0.072,0.549-0.35,1.051-0.814,1.372c-0.464,0.321-1.032,0.402-1.571,0.275c-0.539-0.127-1.04-0.47-1.395-0.985
	c-1.028-1.495-2.058-2.989-3.083-4.486C8.195,9.49,8.102,9.082,8.454,8.842c0.396-0.269,0.818,0.081,1.087,0.475l3.047,4.458
	c0.145,0.21,0.364,0.361,0.586,0.413c0.222,0.052,0.456,0.02,0.646-0.112c0.191-0.131,0.304-0.338,0.334-0.563
	s-0.025-0.472-0.17-0.682L9.709,6.636H11.179L11.179,6.636z M13.232,6.636h-1.457l5.936,8.6c0.408,0.591,0.537,1.295,0.416,1.955
	c-0.12,0.658-0.491,1.271-1.081,1.679l0,0c-0.591,0.407-1.296,0.537-1.954,0.416c-0.659-0.121-1.272-0.491-1.68-1.082L7.587,9.765
	v2.109l4.838,7.01c0.596,0.863,1.49,1.404,2.45,1.579c0.96,0.177,1.988-0.012,2.85-0.607v0c0.863-0.596,1.404-1.489,1.58-2.449
	c0.176-0.96-0.012-1.988-0.608-2.851L13.232,6.636z"/>
<text transform="matrix(1 0 0 1 5.2891 39.5225)"><tspan x="0" y="0" fill="#FFFFFF" font-family="'ArialMT'" font-size="7.6942">D</tspan><tspan x="5.557" y="0" fill="#FFFFFF" font-family="'ArialMT'" font-size="7.6942">JVU</tspan></text>
</svg>
