<?xml version="1.0" encoding="utf-8"?>
<!-- Generator: Adobe Illustrator 16.2.0, SVG Export Plug-In . SVG Version: 6.00 Build 0)  -->
<!DOCTYPE svg PUBLIC "-//W3C//DTD SVG 1.1//EN" "http://www.w3.org/Graphics/SVG/1.1/DTD/svg11.dtd">
<svg version="1.1" id="Слой_1" xmlns="http://www.w3.org/2000/svg" xmlns:xlink="http://www.w3.org/1999/xlink" x="0px" y="0px"
	 width="32px" height="42px" viewBox="0 0 32 42" enable-background="new 0 0 32 42" xml:space="preserve">
<path fill-rule="evenodd" clip-rule="evenodd" fill="#E2F0F5" d="M2.572,0h26.779c1.415,0,2.572,1.157,2.572,2.572v36.613
	c0,1.415-1.157,2.572-2.572,2.572H2.572C1.156,41.758,0,40.601,0,39.186V2.572C0,1.157,1.156,0,2.572,0z"/>
<path fill-rule="evenodd" clip-rule="evenodd" fill="#BDD2DA" d="M15.887,0h13.464c1.415,0,2.572,1.157,2.572,2.572v36.613
	c0,1.415-1.157,2.572-2.572,2.572H15.887V0z"/>
<path fill-rule="evenodd" clip-rule="evenodd" fill="#3193D1" d="M31.923,31.016v8.17c0,1.415-1.157,2.572-2.572,2.572H2.572
	C1.156,41.758,0,40.601,0,39.186v-8.17H31.923z"/>
<path fill-rule="evenodd" clip-rule="evenodd" fill="#0D84C7" d="M31.923,31.016v8.17c0,1.415-1.157,2.572-2.572,2.572H15.887
	V31.016H31.923z"/>
<text transform="matrix(1 0 0 1 6.9106 39.5049)"><tspan x="0" y="0" fill="#FFFFFF" font-family="'ArialMT'" font-size="7.8249">D</tspan><tspan x="5.651" y="0" fill="#FFFFFF" font-family="'ArialMT'" font-size="7.8249">OC</tspan></text>
<polygon fill-rule="evenodd" clip-rule="evenodd" fill="#3193D1" points="6.058,9.776 10.183,9.776 11.667,17.624 13.84,9.776 
	17.933,9.776 20.124,17.638 21.616,9.776 25.722,9.776 22.622,23.842 18.358,23.842 15.89,14.985 13.437,23.842 9.182,23.842 "/>
<polygon fill-rule="evenodd" clip-rule="evenodd" fill="#0D84C7" points="15.939,9.776 17.933,9.776 20.124,17.638 21.616,9.776 
	25.722,9.776 22.622,23.842 18.358,23.842 15.939,15.163 "/>
</svg>
