<?xml version="1.0" encoding="utf-8"?>
<!-- Generator: Adobe Illustrator 16.2.0, SVG Export Plug-In . SVG Version: 6.00 Build 0)  -->
<!DOCTYPE svg PUBLIC "-//W3C//DTD SVG 1.1//EN" "http://www.w3.org/Graphics/SVG/1.1/DTD/svg11.dtd">
<svg version="1.1" id="Слой_1" xmlns="http://www.w3.org/2000/svg" xmlns:xlink="http://www.w3.org/1999/xlink" x="0px" y="0px"
	 width="32px" height="42px" viewBox="0 0 32 42" enable-background="new 0 0 32 42" xml:space="preserve">
<path fill-rule="evenodd" clip-rule="evenodd" fill="#E2F0F5" d="M2.577,0h26.823c1.417,0,2.577,1.16,2.577,2.577V39.25
	c0,1.417-1.16,2.576-2.577,2.576H2.577C1.16,41.826,0,40.667,0,39.25V2.577C0,1.16,1.16,0,2.577,0z"/>
<path fill-rule="evenodd" clip-rule="evenodd" fill="#BDD2DA" d="M15.913,0h13.486c1.417,0,2.577,1.16,2.577,2.577V39.25
	c0,1.417-1.16,2.576-2.577,2.576H15.913V0z"/>
<path fill-rule="evenodd" clip-rule="evenodd" fill="#3193D1" d="M31.977,31.066v8.184c0,1.417-1.16,2.576-2.577,2.576H2.577
	C1.16,41.826,0,40.667,0,39.25v-8.184H31.977z"/>
<path fill-rule="evenodd" clip-rule="evenodd" fill="#0D84C7" d="M31.977,31.066v8.184c0,1.417-1.16,2.576-2.577,2.576H15.913
	v-10.76H31.977z"/>
<text transform="matrix(1 0 0 1 4.4341 39.5117)"><tspan x="0" y="0" fill="#FFFFFF" font-family="'ArialMT'" font-size="7.6782">D</tspan><tspan x="5.545" y="0" fill="#FFFFFF" font-family="'ArialMT'" font-size="7.6782">OCX</tspan></text>
<polygon fill-rule="evenodd" clip-rule="evenodd" fill="#3193D1" points="6.068,9.792 10.201,9.792 11.686,17.653 13.864,9.792 
	17.963,9.792 20.157,17.667 21.652,9.792 25.765,9.792 22.66,23.881 18.39,23.881 15.917,15.01 13.46,23.881 9.197,23.881 "/>
<polygon fill-rule="evenodd" clip-rule="evenodd" fill="#0D84C7" points="15.966,9.792 17.963,9.792 20.157,17.667 21.652,9.792 
	25.765,9.792 22.66,23.881 18.39,23.881 15.966,15.187 "/>
</svg>
