<?xml version="1.0" encoding="utf-8"?>
<!-- Generator: Adobe Illustrator 16.2.0, SVG Export Plug-In . SVG Version: 6.00 Build 0)  -->
<!DOCTYPE svg PUBLIC "-//W3C//DTD SVG 1.1//EN" "http://www.w3.org/Graphics/SVG/1.1/DTD/svg11.dtd">
<svg version="1.1" id="Слой_1" xmlns="http://www.w3.org/2000/svg" xmlns:xlink="http://www.w3.org/1999/xlink" x="0px" y="0px"
	 width="32px" height="42px" viewBox="0 0 32 42" enable-background="new 0 0 32 42" xml:space="preserve">
<path fill-rule="evenodd" clip-rule="evenodd" fill="#E2F0F5" d="M2.633,0.148h26.812c1.415,0,2.574,1.158,2.574,2.575V39.38
	c0,1.416-1.159,2.575-2.574,2.575H2.633c-1.417,0-2.575-1.159-2.575-2.575V2.723C0.059,1.306,1.217,0.148,2.633,0.148z"/>
<path fill-rule="evenodd" clip-rule="evenodd" fill="#BDD2DA" d="M15.965,0.148h13.48c1.415,0,2.574,1.158,2.574,2.575V39.38
	c0,1.416-1.159,2.575-2.574,2.575h-13.48V0.148z"/>
<rect x="6.391" y="5.794" fill-rule="evenodd" clip-rule="evenodd" fill="#29B0C4" width="19.13" height="19.131"/>
<rect x="15.984" y="5.794" fill-rule="evenodd" clip-rule="evenodd" fill="#039AAF" width="9.537" height="19.131"/>
<rect x="8.628" y="8.032" fill-rule="evenodd" clip-rule="evenodd" fill="#E2F0F5" width="14.657" height="14.656"/>
<rect x="15.984" y="8.032" fill-rule="evenodd" clip-rule="evenodd" fill="#BDD2DA" width="7.301" height="14.657"/>
<path fill-rule="evenodd" clip-rule="evenodd" fill="#29B0C4" d="M32.02,31.199v8.181c0,1.416-1.159,2.575-2.574,2.575H2.633
	c-1.417,0-2.575-1.159-2.575-2.575v-8.181H32.02z"/>
<path fill-rule="evenodd" clip-rule="evenodd" fill="#039AAF" d="M32.02,31.199v8.181c0,1.416-1.159,2.575-2.574,2.575h-13.48
	V31.199H32.02z"/>
<text transform="matrix(1 0 0 1 6.7261 39.6416)"><tspan x="0" y="0" fill="#FFFFFF" font-family="'ArialMT'" font-size="7.6747">D</tspan><tspan x="5.542" y="0" fill="#FFFFFF" font-family="'ArialMT'" font-size="7.6747">WG</tspan></text>
<rect x="8.275" y="13.632" fill-rule="evenodd" clip-rule="evenodd" fill="#29B0C4" width="15.456" height="0.883"/>
<rect x="13.066" y="7.563" fill-rule="evenodd" clip-rule="evenodd" fill="#29B0C4" width="0.953" height="15.467"/>
<path fill-rule="evenodd" clip-rule="evenodd" fill="#039AAF" d="M10.403,10.354h6.295h0.651v0.65V17.3v0.65h-0.651h-6.295h-0.65
	V17.3v-6.295v-0.65H10.403L10.403,10.354z M16.049,11.654h-4.996v4.996h4.996V11.654z"/>
<rect x="16.059" y="13.632" fill-rule="evenodd" clip-rule="evenodd" fill="#039AAF" width="7.673" height="0.883"/>
</svg>
