<?xml version="1.0" encoding="utf-8"?>
<!-- Generator: Adobe Illustrator 16.2.0, SVG Export Plug-In . SVG Version: 6.00 Build 0)  -->
<!DOCTYPE svg PUBLIC "-//W3C//DTD SVG 1.1//EN" "http://www.w3.org/Graphics/SVG/1.1/DTD/svg11.dtd">
<svg version="1.1" id="Слой_1" xmlns="http://www.w3.org/2000/svg" xmlns:xlink="http://www.w3.org/1999/xlink" x="0px" y="0px"
	 width="32px" height="42px" viewBox="0 0 32 42" enable-background="new 0 0 32 42" xml:space="preserve">
<path fill-rule="evenodd" clip-rule="evenodd" fill="#E2F0F5" d="M2.583,0h26.89c1.42,0,2.582,1.162,2.582,2.583v36.764
	c0,1.421-1.162,2.583-2.582,2.583H2.583C1.162,41.93,0,40.768,0,39.347V2.583C0,1.162,1.162,0,2.583,0z"/>
<path fill-rule="evenodd" clip-rule="evenodd" fill="#BDD2DA" d="M15.952,0h13.521c1.42,0,2.582,1.162,2.582,2.583v36.764
	c0,1.421-1.162,2.583-2.582,2.583H15.952V0z"/>
<path fill-rule="evenodd" clip-rule="evenodd" fill="#3AB76D" d="M32.055,31.144v8.203c0,1.421-1.162,2.583-2.582,2.583H2.583
	C1.162,41.93,0,40.768,0,39.347v-8.203H32.055z"/>
<path fill-rule="evenodd" clip-rule="evenodd" fill="#14B368" d="M32.055,31.144v8.203c0,1.421-1.162,2.583-2.582,2.583H15.952
	V31.144H32.055z"/>
<text transform="matrix(1 0 0 1 9.6299 39.6094)"><tspan x="0" y="0" fill="#FFFFFF" font-family="'ArialMT'" font-size="7.6973">G</tspan><tspan x="5.987" y="0" fill="#FFFFFF" font-family="'ArialMT'" font-size="7.6973">IF</tspan></text>
<rect x="6.339" y="6.333" fill-rule="evenodd" clip-rule="evenodd" fill="#3AB76D" width="19.121" height="19.121"/>
<rect x="15.927" y="6.333" fill-rule="evenodd" clip-rule="evenodd" fill="#14B368" width="9.533" height="19.121"/>
<rect x="8.575" y="8.568" fill-rule="evenodd" clip-rule="evenodd" fill="#E2F0F5" width="14.649" height="14.649"/>
<rect x="15.927" y="8.568" fill-rule="evenodd" clip-rule="evenodd" fill="#BDD2DA" width="7.296" height="14.649"/>
<g>
	<path fill-rule="evenodd" clip-rule="evenodd" fill="#3AB76D" d="M9.517,20.401c0.176-0.177,0.34-0.348,0.485-0.509
		c1.039-1.154,1.664-0.925,3.164,0.459c0.881,0.813,1.625,1.468,2.09,1.87H9.517V20.401z"/>
	<path fill-rule="evenodd" clip-rule="evenodd" fill="#3AB76D" d="M12.944,18.939c0.87-0.872,1.497-1.51,2.117-2.133
		c2.876-2.889,3.623-1.843,6.546,0.951c1.67,1.595,0.57,0.525,0.844,0.774v3.691h-6.052L12.944,18.939z"/>
	<path fill-rule="evenodd" clip-rule="evenodd" fill="#3AB76D" d="M12.542,15.569c1.146,0,2.08-0.935,2.08-2.081
		c0-1.146-0.935-2.08-2.08-2.08c-1.146,0-2.081,0.935-2.081,2.08C10.461,14.635,11.396,15.569,12.542,15.569z"/>
</g>
<path fill-rule="evenodd" clip-rule="evenodd" fill="#14B368" d="M15.951,15.982c2.18-1.81,3.059-0.707,5.657,1.775
	c1.67,1.595,0.57,0.525,0.844,0.774v3.691h-6.052l-0.449-0.426V15.982z"/>
<rect x="20.06" y="14.163" fill-rule="evenodd" clip-rule="evenodd" fill="#14B368" width="1.247" height="1.248"/>
<rect x="17.555" y="14.163" fill-rule="evenodd" clip-rule="evenodd" fill="#14B368" width="1.248" height="1.248"/>
<rect x="20.06" y="11.668" fill-rule="evenodd" clip-rule="evenodd" fill="#14B368" width="1.247" height="1.248"/>
<rect x="17.555" y="11.668" fill-rule="evenodd" clip-rule="evenodd" fill="#14B368" width="1.248" height="1.248"/>
<rect x="18.802" y="12.916" fill-rule="evenodd" clip-rule="evenodd" fill="#14B368" width="1.248" height="1.247"/>
<rect x="21.297" y="10.401" fill-rule="evenodd" clip-rule="evenodd" fill="#14B368" width="1.248" height="1.248"/>
<rect x="21.309" y="12.942" fill-rule="evenodd" clip-rule="evenodd" fill="#14B368" width="1.247" height="1.248"/>
<rect x="21.309" y="15.412" fill-rule="evenodd" clip-rule="evenodd" fill="#14B368" width="1.247" height="1.248"/>
</svg>
