<?xml version="1.0" encoding="utf-8"?>
<!-- Generator: Adobe Illustrator 16.2.0, SVG Export Plug-In . SVG Version: 6.00 Build 0)  -->
<!DOCTYPE svg PUBLIC "-//W3C//DTD SVG 1.1//EN" "http://www.w3.org/Graphics/SVG/1.1/DTD/svg11.dtd">
<svg version="1.1" id="Слой_1" xmlns="http://www.w3.org/2000/svg" xmlns:xlink="http://www.w3.org/1999/xlink" x="0px" y="0px"
	 width="32px" height="42px" viewBox="0 0 32 42" enable-background="new 0 0 32 42" xml:space="preserve">
<path fill-rule="evenodd" clip-rule="evenodd" fill="#E2F0F5" d="M2.579,0h26.846c1.419,0,2.578,1.16,2.578,2.579v36.706
	c0,1.418-1.159,2.578-2.578,2.578H2.579C1.161,41.862,0,40.702,0,39.284V2.579C0,1.16,1.161,0,2.579,0z"/>
<path fill-rule="evenodd" clip-rule="evenodd" fill="#BDD2DA" d="M15.927,0h13.498c1.419,0,2.578,1.16,2.578,2.579v36.706
	c0,1.418-1.159,2.578-2.578,2.578H15.927V0z"/>
<path fill-rule="evenodd" clip-rule="evenodd" fill="#25B99B" d="M32.003,31.094v8.19c0,1.418-1.159,2.578-2.578,2.578H2.579
	C1.161,41.862,0,40.702,0,39.284v-8.19H32.003z"/>
<path fill-rule="evenodd" clip-rule="evenodd" fill="#009C83" d="M32.003,31.094v8.19c0,1.418-1.159,2.578-2.578,2.578H15.927
	V31.094H32.003z"/>
<text transform="matrix(1 0 0 1 7.0742 39.5459)"><tspan x="0" y="0" fill="#FFFFFF" font-family="'ArialMT'" font-size="7.6849">J</tspan><tspan x="3.842" y="0" fill="#FFFFFF" font-family="'ArialMT'" font-size="7.6849">PEG</tspan></text>
<rect x="6.797" y="6.943" fill-rule="evenodd" clip-rule="evenodd" fill="#25B99B" width="18.237" height="18.237"/>
<rect x="15.942" y="6.943" fill-rule="evenodd" clip-rule="evenodd" fill="#009C83" width="9.092" height="18.237"/>
<rect x="8.929" y="9.076" fill-rule="evenodd" clip-rule="evenodd" fill="#E2F0F5" width="13.972" height="13.973"/>
<rect x="15.942" y="9.076" fill-rule="evenodd" clip-rule="evenodd" fill="#BDD2DA" width="6.959" height="13.973"/>
<path fill-rule="evenodd" clip-rule="evenodd" fill="#25B99B" d="M9.796,20.277c0.168-0.168,0.324-0.332,0.462-0.485
	c0.991-1.101,1.586-0.882,3.018,0.438c0.839,0.776,1.549,1.4,1.993,1.783H9.796V20.277z"/>
<path fill-rule="evenodd" clip-rule="evenodd" fill="#25B99B" d="M13.063,18.883c0.83-0.832,1.428-1.441,2.02-2.035
	c2.743-2.755,3.455-1.757,6.243,0.907c1.593,1.521,0.545,0.5,0.806,0.738v3.521h-5.772L13.063,18.883z"/>
<path fill-rule="evenodd" clip-rule="evenodd" fill="#25B99B" d="M12.68,15.668c1.092,0,1.984-0.891,1.984-1.984
	s-0.892-1.983-1.984-1.983c-1.093,0-1.984,0.891-1.984,1.983S11.587,15.668,12.68,15.668z"/>
</svg>
