<?xml version="1.0" encoding="utf-8"?>
<!-- Generator: Adobe Illustrator 16.2.0, SVG Export Plug-In . SVG Version: 6.00 Build 0)  -->
<!DOCTYPE svg PUBLIC "-//W3C//DTD SVG 1.1//EN" "http://www.w3.org/Graphics/SVG/1.1/DTD/svg11.dtd">
<svg version="1.1" id="Слой_1" xmlns="http://www.w3.org/2000/svg" xmlns:xlink="http://www.w3.org/1999/xlink" x="0px" y="0px"
	 width="32px" height="42px" viewBox="0 0 32 42" enable-background="new 0 0 32 42" xml:space="preserve">
<path fill-rule="evenodd" clip-rule="evenodd" fill="#E2F0F5" d="M2.706,0h26.725c1.413,0,2.567,1.155,2.567,2.567v36.54
	c0,1.412-1.154,2.566-2.567,2.566H2.706c-1.412,0-2.567-1.154-2.567-2.566V2.567C0.139,1.155,1.294,0,2.706,0z"/>
<path fill-rule="evenodd" clip-rule="evenodd" fill="#BDD2DA" d="M15.994,0h13.437c1.413,0,2.567,1.155,2.567,2.567v36.54
	c0,1.412-1.154,2.566-2.567,2.566H15.994V0z"/>
<path fill-rule="evenodd" clip-rule="evenodd" fill="#25B99B" d="M31.998,30.953v8.153c0,1.412-1.154,2.566-2.567,2.566H2.706
	c-1.412,0-2.567-1.154-2.567-2.566v-8.153H31.998z"/>
<path fill-rule="evenodd" clip-rule="evenodd" fill="#009C83" d="M31.998,30.953v8.153c0,1.412-1.154,2.566-2.567,2.566H15.994
	v-10.72H31.998z"/>
<text transform="matrix(1 0 0 1 9.1709 39.3662)"><tspan x="0" y="0" fill="#FFFFFF" font-family="'ArialMT'" font-size="7.6501">J</tspan><tspan x="3.825" y="0" fill="#FFFFFF" font-family="'ArialMT'" font-size="7.6501">PG</tspan></text>
<rect x="6.905" y="6.913" fill-rule="evenodd" clip-rule="evenodd" fill="#25B99B" width="18.154" height="18.154"/>
<rect x="16.009" y="6.913" fill-rule="evenodd" clip-rule="evenodd" fill="#009C83" width="9.051" height="18.154"/>
<rect x="9.028" y="9.035" fill-rule="evenodd" clip-rule="evenodd" fill="#E2F0F5" width="13.909" height="13.909"/>
<rect x="16.009" y="9.035" fill-rule="evenodd" clip-rule="evenodd" fill="#BDD2DA" width="6.928" height="13.909"/>
<path fill-rule="evenodd" clip-rule="evenodd" fill="#25B99B" d="M9.891,20.186c0.167-0.167,0.323-0.331,0.459-0.483
	c0.986-1.096,1.579-0.878,3.004,0.437c0.836,0.772,1.543,1.393,1.984,1.775H9.891V20.186z"/>
<path fill-rule="evenodd" clip-rule="evenodd" fill="#25B99B" d="M13.143,18.797c0.826-0.827,1.421-1.434,2.011-2.025
	c2.731-2.742,3.439-1.75,6.216,0.903c1.585,1.514,0.541,0.498,0.8,0.735v3.505h-5.746L13.143,18.797z"/>
<path fill-rule="evenodd" clip-rule="evenodd" fill="#25B99B" d="M12.762,15.597c1.087,0,1.974-0.887,1.974-1.974
	c0-1.088-0.887-1.975-1.974-1.975c-1.088,0-1.975,0.887-1.975,1.975C10.787,14.71,11.674,15.597,12.762,15.597z"/>
</svg>
