<?xml version="1.0" encoding="utf-8"?>
<!-- Generator: Adobe Illustrator 16.2.0, SVG Export Plug-In . SVG Version: 6.00 Build 0)  -->
<!DOCTYPE svg PUBLIC "-//W3C//DTD SVG 1.1//EN" "http://www.w3.org/Graphics/SVG/1.1/DTD/svg11.dtd">
<svg version="1.1" id="Слой_1" xmlns="http://www.w3.org/2000/svg" xmlns:xlink="http://www.w3.org/1999/xlink" x="0px" y="0px"
	 width="32px" height="42px" viewBox="0 0 32 42" enable-background="new 0 0 32 42" xml:space="preserve">
<path fill-rule="evenodd" clip-rule="evenodd" fill="#E2F0F5" d="M2.516,0h26.909c1.422,0,2.584,1.163,2.584,2.584v36.791
	c0,1.422-1.162,2.584-2.584,2.584H2.516c-1.421,0-2.584-1.162-2.584-2.584V2.584C-0.068,1.163,1.095,0,2.516,0z"/>
<path fill-rule="evenodd" clip-rule="evenodd" fill="#BDD2DA" d="M15.895,0h13.53c1.422,0,2.584,1.163,2.584,2.584v36.791
	c0,1.422-1.162,2.584-2.584,2.584h-13.53V0z"/>
<path fill-rule="evenodd" clip-rule="evenodd" fill="#715A90" d="M32.009,31.166v8.209c0,1.422-1.162,2.584-2.584,2.584H2.516
	c-1.421,0-2.584-1.162-2.584-2.584v-8.209H32.009z"/>
<path fill-rule="evenodd" clip-rule="evenodd" fill="#481F71" d="M32.009,31.166v8.209c0,1.422-1.162,2.584-2.584,2.584h-13.53
	V31.166H32.009z"/>
<text transform="matrix(1 0 0 1 8.3701 39.6377)"><tspan x="0" y="0" fill="#FFFFFF" font-family="'ArialMT'" font-size="7.7027">O</tspan><tspan x="5.991" y="0" fill="#FFFFFF" font-family="'ArialMT'" font-size="7.7027">DF</tspan></text>
<path fill-rule="evenodd" clip-rule="evenodd" fill="#715A90" d="M21.201,13.199c0,0,0.607-1.761,1.313-2.753
	c0.704-0.992,1.472-1.472,2.433-1.056s0.864,0.8,0.864,0.8l1.185,0.384c0,0-1.473,0.191-1.697,1.248
	c-0.224,1.057,0.256,5.474-1.056,7.491c-1.313,2.017-3.041,3.489-6.466,4c-3.425,0.513-5.25,0.129-6.306,0.513
	c-1.056,0.385-2.529,1.023-3.201,1.313c-0.672,0.288-1.504-0.225-2.401-0.833c-0.896-0.607-1.504-1.056,0.128-1.248
	c1.632-0.192,5.985-0.736,7.298-1.696c1.312-0.96,3.585-3.36,4.641-4.577C18.993,15.568,21.201,13.199,21.201,13.199z"/>
<path fill-rule="evenodd" clip-rule="evenodd" fill="#481F71" d="M21.201,13.2c0,0,0.607-1.762,1.313-2.753
	c0.704-0.992,1.472-1.472,2.433-1.056s0.864,0.8,0.864,0.8l1.185,0.384c0,0-1.473,0.191-1.697,1.248
	c-0.224,1.057,0.256,5.474-1.056,7.491c-1.313,2.017-3.041,3.489-6.466,4c-0.677,0.102-1.289,0.168-1.847,0.211v-4.578
	c0.784-0.801,1.523-1.605,2.006-2.163C18.992,15.568,21.201,13.2,21.201,13.2z"/>
<path fill-rule="evenodd" clip-rule="evenodd" fill="#481F71" d="M20.305,12.943l0.48-0.416c0,0,0-2.048,0.352-3.649
	c0.353-1.6,1.377-3.617,1.377-3.617l-5.218,4.001c0,0,1.344,0.608,1.984,1.537C19.921,11.727,20.305,12.943,20.305,12.943z"/>
<path fill-rule="evenodd" clip-rule="evenodd" fill="#715A90" d="M19.696,13.551l-5.793,6.242c0,0-1.313-2.113-3.713-3.041
	S4.749,16.4,4.749,16.4l6.273-7.138c0,0,3.297-0.576,5.441,0.576C18.608,10.99,19.696,13.551,19.696,13.551z"/>
<path fill-rule="evenodd" clip-rule="evenodd" fill="#481F71" d="M19.696,13.551L15.93,17.61V9.594
	c0.184,0.071,0.362,0.153,0.534,0.244C18.608,10.99,19.696,13.551,19.696,13.551z"/>
</svg>
