<?xml version="1.0" encoding="utf-8"?>
<!-- Generator: Adobe Illustrator 16.2.0, SVG Export Plug-In . SVG Version: 6.00 Build 0)  -->
<!DOCTYPE svg PUBLIC "-//W3C//DTD SVG 1.1//EN" "http://www.w3.org/Graphics/SVG/1.1/DTD/svg11.dtd">
<svg version="1.1" id="Слой_1" xmlns="http://www.w3.org/2000/svg" xmlns:xlink="http://www.w3.org/1999/xlink" x="0px" y="0px"
	 width="32px" height="42px" viewBox="0 0 32 42" enable-background="new 0 0 32 42" xml:space="preserve">
<path fill-rule="evenodd" clip-rule="evenodd" fill="#E2F0F5" d="M2.578,0h26.844C30.84,0,32,1.16,32,2.579v36.701
	c0,1.419-1.16,2.578-2.578,2.578H2.578C1.16,41.857,0,40.698,0,39.279V2.579C0,1.16,1.16,0,2.578,0z"/>
<path fill-rule="evenodd" clip-rule="evenodd" fill="#BDD2DA" d="M15.925,0h13.497C30.84,0,32,1.16,32,2.579v36.701
	c0,1.419-1.16,2.578-2.578,2.578H15.925V0z"/>
<path fill-rule="evenodd" clip-rule="evenodd" fill="#4A8ECC" d="M32,31.091v8.188c0,1.419-1.16,2.578-2.578,2.578H2.578
	C1.16,41.857,0,40.698,0,39.279v-8.188H32z"/>
<path fill-rule="evenodd" clip-rule="evenodd" fill="#3677AD" d="M32,31.091v8.188c0,1.419-1.16,2.578-2.578,2.578H15.925V31.091H32
	z"/>
<rect x="6.286" y="6.165" fill-rule="evenodd" clip-rule="evenodd" fill="#4A8ECC" width="19.155" height="19.155"/>
<rect x="15.891" y="6.165" fill-rule="evenodd" clip-rule="evenodd" fill="#3677AD" width="9.55" height="19.155"/>
<rect x="8.526" y="8.404" fill-rule="evenodd" clip-rule="evenodd" fill="#E2F0F5" width="14.675" height="14.675"/>
<rect x="15.891" y="8.404" fill-rule="evenodd" clip-rule="evenodd" fill="#BDD2DA" width="7.311" height="14.675"/>
<path fill-rule="evenodd" clip-rule="evenodd" fill="#4A8ECC" d="M11.761,12.055c0,0,1.34-1.505,3.121-1.322s3.03,1.579,3.03,1.579
	s1.486-1.138,3.103-1.009c1.615,0.128,3.213,1.854,3.213,1.854s-2.276-1.34-4.314-0.331c-2.038,1.01-2.13,1.23-2.13,1.23
	s-1.432-1.873-3.029-2.277S11.761,12.055,11.761,12.055z"/>
<path fill-rule="evenodd" clip-rule="evenodd" fill="#3677AD" d="M15.882,10.968c1.23,0.451,2.03,1.344,2.03,1.344
	s1.486-1.138,3.103-1.009c1.615,0.128,3.213,1.854,3.213,1.854s-2.276-1.34-4.314-0.331c-2.038,1.01-2.13,1.23-2.13,1.23
	s-0.815-1.066-1.901-1.763V10.968z"/>
<path fill-rule="evenodd" clip-rule="evenodd" fill="#4A8ECC" d="M7.343,20.045c0,0,1.256-2.449,3.672-2.816
	c2.417-0.368,4.545,1.048,4.545,1.048s1.576-2.014,3.755-2.398c2.18-0.384,4.882,1.35,4.882,1.35s-3.468-0.991-5.815,1.042
	c-2.347,2.033-2.393,2.355-2.393,2.355s-2.535-1.984-4.785-1.971C8.955,18.669,7.343,20.045,7.343,20.045z"/>
<path fill-rule="evenodd" clip-rule="evenodd" fill="#3677AD" d="M15.882,17.913c0.567-0.599,1.838-1.753,3.434-2.034
	c2.18-0.384,4.882,1.35,4.882,1.35s-3.468-0.991-5.815,1.042c-2.347,2.033-2.393,2.355-2.393,2.355s-0.038-0.029-0.107-0.081V17.913
	z"/>
<text transform="matrix(1 0 0 1 8.5371 39.541)"><tspan x="0" y="0" fill="#FFFFFF" font-family="'ArialMT'" font-size="7.6841">O</tspan><tspan x="5.977" y="0" fill="#FFFFFF" font-family="'ArialMT'" font-size="7.6841">DT</tspan></text>
</svg>
