<?xml version="1.0" encoding="utf-8"?>
<!-- Generator: Adobe Illustrator 16.2.0, SVG Export Plug-In . SVG Version: 6.00 Build 0)  -->
<!DOCTYPE svg PUBLIC "-//W3C//DTD SVG 1.1//EN" "http://www.w3.org/Graphics/SVG/1.1/DTD/svg11.dtd">
<svg version="1.1" id="Слой_1" xmlns="http://www.w3.org/2000/svg" xmlns:xlink="http://www.w3.org/1999/xlink" x="0px" y="0px"
	 width="32px" height="42px" viewBox="0 0 32 42" enable-background="new 0 0 32 42" xml:space="preserve">
<path fill-rule="evenodd" clip-rule="evenodd" fill="#E2F0F5" d="M2.58,0h26.86c1.419,0,2.579,1.161,2.579,2.58v36.725
	c0,1.418-1.16,2.58-2.579,2.58H2.58c-1.419,0-2.58-1.162-2.58-2.58V2.58C0,1.161,1.161,0,2.58,0z"/>
<path fill-rule="evenodd" clip-rule="evenodd" fill="#BDD2DA" d="M15.935,0H29.44c1.419,0,2.579,1.161,2.579,2.58v36.725
	c0,1.418-1.16,2.58-2.579,2.58H15.935V0z"/>
<rect x="6.353" y="6.326" fill-rule="evenodd" clip-rule="evenodd" fill="#F26661" width="19.1" height="19.1"/>
<rect x="15.93" y="6.326" fill-rule="evenodd" clip-rule="evenodd" fill="#E8605E" width="9.522" height="19.1"/>
<rect x="8.586" y="8.559" fill-rule="evenodd" clip-rule="evenodd" fill="#E2F0F5" width="14.634" height="14.633"/>
<rect x="15.93" y="8.56" fill-rule="evenodd" clip-rule="evenodd" fill="#BDD2DA" width="7.29" height="14.633"/>
<path fill-rule="evenodd" clip-rule="evenodd" fill="#F26661" d="M32.02,31.109v8.195c0,1.418-1.16,2.58-2.579,2.58H2.58
	c-1.419,0-2.58-1.162-2.58-2.58v-8.195H32.02z"/>
<path fill-rule="evenodd" clip-rule="evenodd" fill="#E8605E" d="M32.02,31.109v8.195c0,1.418-1.16,2.58-2.579,2.58H15.935V31.109
	H32.02z"/>
<g>
	<rect x="10.034" y="10" fill-rule="evenodd" clip-rule="evenodd" fill="#F26661" width="5.143" height="6.638"/>
	<rect x="10.012" y="17.874" fill-rule="evenodd" clip-rule="evenodd" fill="#F26661" width="11.834" height="1.247"/>
	<rect x="15.924" y="17.874" fill-rule="evenodd" clip-rule="evenodd" fill="#E8605E" width="5.921" height="1.247"/>
	<rect x="10.012" y="20.396" fill-rule="evenodd" clip-rule="evenodd" fill="#F26661" width="11.834" height="1.248"/>
	<rect x="15.924" y="20.396" fill-rule="evenodd" clip-rule="evenodd" fill="#E8605E" width="5.921" height="1.248"/>
	<rect x="15.924" y="12.731" fill-rule="evenodd" clip-rule="evenodd" fill="#E8605E" width="5.921" height="1.248"/>
	<rect x="15.924" y="15.254" fill-rule="evenodd" clip-rule="evenodd" fill="#E8605E" width="5.921" height="1.248"/>
	<rect x="15.924" y="10.182" fill-rule="evenodd" clip-rule="evenodd" fill="#E8605E" width="5.921" height="1.247"/>
</g>
<text transform="matrix(1 0 0 1 8.1504 39.5654)"><tspan x="0" y="0" fill="#FFFFFF" font-family="'ArialMT'" font-size="7.6889">P</tspan><tspan x="5.128" y="0" fill="#FFFFFF" font-family="'ArialMT'" font-size="7.6889">DF</tspan></text>
</svg>
