<?xml version="1.0" encoding="utf-8"?>
<!-- Generator: Adobe Illustrator 16.2.0, SVG Export Plug-In . SVG Version: 6.00 Build 0)  -->
<!DOCTYPE svg PUBLIC "-//W3C//DTD SVG 1.1//EN" "http://www.w3.org/Graphics/SVG/1.1/DTD/svg11.dtd">
<svg version="1.1" id="Слой_1" xmlns="http://www.w3.org/2000/svg" xmlns:xlink="http://www.w3.org/1999/xlink" x="0px" y="0px"
	 width="32px" height="42px" viewBox="0 0 32 42" enable-background="new 0 0 32 42" xml:space="preserve">
<path fill-rule="evenodd" clip-rule="evenodd" fill="#E2F0F5" d="M2.622,0.054h26.79c1.416,0,2.573,1.158,2.573,2.573v36.629
	c0,1.416-1.157,2.574-2.573,2.574H2.622c-1.416,0-2.573-1.158-2.573-2.574V2.627C0.049,1.211,1.207,0.054,2.622,0.054z"/>
<path fill-rule="evenodd" clip-rule="evenodd" fill="#BDD2DA" d="M15.943,0.054h13.469c1.416,0,2.573,1.158,2.573,2.573v36.629
	c0,1.416-1.157,2.574-2.573,2.574H15.943V0.054z"/>
<path fill-rule="evenodd" clip-rule="evenodd" fill="#DC9A38" d="M31.985,31.082v8.174c0,1.416-1.157,2.574-2.573,2.574H2.622
	c-1.416,0-2.573-1.158-2.573-2.574v-8.174H31.985z"/>
<path fill-rule="evenodd" clip-rule="evenodd" fill="#BF7D1A" d="M31.985,31.082v8.174c0,1.416-1.157,2.574-2.573,2.574H15.943
	V31.082H31.985z"/>
<text transform="matrix(1 0 0 1 7.8682 39.5166)"><tspan x="0" y="0" fill="#FFFFFF" font-family="'ArialMT'" font-size="7.669">P</tspan><tspan x="5.115" y="0" fill="#FFFFFF" font-family="'ArialMT'" font-size="7.669">NG</tspan></text>
<rect x="6.398" y="6.109" fill-rule="evenodd" clip-rule="evenodd" fill="#DC9A38" width="19.049" height="19.05"/>
<rect x="15.951" y="6.109" fill-rule="evenodd" clip-rule="evenodd" fill="#BF7D1A" width="9.497" height="19.05"/>
<rect x="8.625" y="8.336" fill-rule="evenodd" clip-rule="evenodd" fill="#E2F0F5" width="14.595" height="14.595"/>
<rect x="15.951" y="8.336" fill-rule="evenodd" clip-rule="evenodd" fill="#BDD2DA" width="7.27" height="14.595"/>
<g>
	<path fill-rule="evenodd" clip-rule="evenodd" fill="#DC9A38" d="M9.565,20.125c0.175-0.176,0.338-0.347,0.482-0.507
		c1.035-1.149,1.657-0.921,3.153,0.458c0.876,0.811,1.619,1.462,2.083,1.863H9.565V20.125z"/>
	<path fill-rule="evenodd" clip-rule="evenodd" fill="#DC9A38" d="M12.979,18.668c0.867-0.869,1.491-1.504,2.109-2.125
		c2.866-2.878,3.608-1.836,6.522,0.947c1.664,1.589,0.569,0.523,0.841,0.771v3.677h-6.029L12.979,18.668z"/>
	<path fill-rule="evenodd" clip-rule="evenodd" fill="#DC9A38" d="M12.577,15.311c1.142,0,2.073-0.932,2.073-2.072
		c0-1.142-0.932-2.073-2.073-2.073c-1.141,0-2.072,0.931-2.072,2.073C10.505,14.379,11.436,15.311,12.577,15.311z"/>
</g>
<path fill-rule="evenodd" clip-rule="evenodd" fill="#BF7D1A" d="M15.975,15.724c2.172-1.804,3.048-0.706,5.636,1.767
	c1.664,1.589,0.569,0.523,0.841,0.771v3.677h-6.029l-0.447-0.424V15.724z"/>
<rect x="20.068" y="13.911" fill-rule="evenodd" clip-rule="evenodd" fill="#BF7D1A" width="1.242" height="1.243"/>
<rect x="17.572" y="13.911" fill-rule="evenodd" clip-rule="evenodd" fill="#BF7D1A" width="1.243" height="1.243"/>
<rect x="20.068" y="11.425" fill-rule="evenodd" clip-rule="evenodd" fill="#BF7D1A" width="1.242" height="1.243"/>
<rect x="17.572" y="11.425" fill-rule="evenodd" clip-rule="evenodd" fill="#BF7D1A" width="1.243" height="1.243"/>
<rect x="18.814" y="12.668" fill-rule="evenodd" clip-rule="evenodd" fill="#BF7D1A" width="1.244" height="1.243"/>
<rect x="21.301" y="10.163" fill-rule="evenodd" clip-rule="evenodd" fill="#BF7D1A" width="1.243" height="1.243"/>
<rect x="21.313" y="12.695" fill-rule="evenodd" clip-rule="evenodd" fill="#BF7D1A" width="1.242" height="1.242"/>
<rect x="21.313" y="15.155" fill-rule="evenodd" clip-rule="evenodd" fill="#BF7D1A" width="1.242" height="1.243"/>
</svg>
