<?xml version="1.0" encoding="utf-8"?>
<!-- Generator: Adobe Illustrator 16.2.0, SVG Export Plug-In . SVG Version: 6.00 Build 0)  -->
<!DOCTYPE svg PUBLIC "-//W3C//DTD SVG 1.1//EN" "http://www.w3.org/Graphics/SVG/1.1/DTD/svg11.dtd">
<svg version="1.1" id="Слой_1" xmlns="http://www.w3.org/2000/svg" xmlns:xlink="http://www.w3.org/1999/xlink" x="0px" y="0px"
	 width="32px" height="42px" viewBox="0 0 32 42" enable-background="new 0 0 32 42" xml:space="preserve">
<path fill-rule="evenodd" clip-rule="evenodd" fill="#E2F0F5" d="M2.578,0H29.42c1.419,0,2.579,1.16,2.579,2.578v36.7
	c0,1.418-1.16,2.578-2.579,2.578H2.578C1.16,41.856,0,40.696,0,39.278v-36.7C0,1.16,1.16,0,2.578,0z"/>
<path fill-rule="evenodd" clip-rule="evenodd" fill="#BDD2DA" d="M15.924,0H29.42c1.419,0,2.579,1.16,2.579,2.578v36.7
	c0,1.418-1.16,2.578-2.579,2.578H15.924V0z"/>
<path fill-rule="evenodd" clip-rule="evenodd" fill="#F58349" d="M31.999,31.089v8.189c0,1.418-1.16,2.578-2.579,2.578H2.578
	C1.16,41.856,0,40.696,0,39.278v-8.189H31.999z"/>
<path fill-rule="evenodd" clip-rule="evenodd" fill="#D15D1F" d="M31.999,31.089v8.189c0,1.418-1.16,2.578-2.579,2.578H15.924
	V31.089H31.999z"/>
<path fill-rule="evenodd" clip-rule="evenodd" fill="#F58349" d="M13.826,7.852h1.54c2.068,0,3.555,0.189,4.467,0.571
	c0.914,0.382,1.639,1,2.165,1.852c0.525,0.852,0.791,1.875,0.791,3.069c0,1.321-0.348,2.418-1.041,3.292
	c-0.689,0.873-1.629,1.483-2.818,1.826c-0.697,0.197-1.966,0.293-3.805,0.293v5.308h-3.582V11.42H8.738V7.838h5.088V7.852
	L13.826,7.852z M15.125,15.252h1.154c0.909,0,1.537-0.065,1.892-0.193c0.354-0.131,0.632-0.342,0.837-0.64
	c0.202-0.299,0.304-0.659,0.304-1.084c0-0.733-0.285-1.269-0.856-1.602c-0.412-0.25-1.185-0.377-2.308-0.377h-1.022V15.252z"/>
<path fill-rule="evenodd" clip-rule="evenodd" fill="#D15D1F" d="M15.952,7.857c1.765,0.033,3.058,0.221,3.881,0.566
	c0.914,0.382,1.639,1,2.165,1.852c0.525,0.852,0.791,1.874,0.791,3.067c0,1.322-0.348,2.419-1.041,3.293
	c-0.689,0.873-1.629,1.483-2.817,1.826c-0.589,0.166-1.582,0.26-2.979,0.286v-3.495h0.327c0.909,0,1.537-0.065,1.892-0.193
	c0.354-0.132,0.632-0.342,0.838-0.641c0.201-0.299,0.303-0.659,0.303-1.084c0-0.733-0.285-1.269-0.856-1.602
	c-0.412-0.25-1.185-0.377-2.308-0.377h-0.195V7.857z"/>
<text transform="matrix(1 0 0 1 8.2246 39.5391)"><tspan x="0" y="0" fill="#FFFFFF" font-family="'ArialMT'" font-size="7.6838">P</tspan><tspan x="5.125" y="0" fill="#FFFFFF" font-family="'ArialMT'" font-size="7.6838">P</tspan><tspan x="10.25" y="0" fill="#FFFFFF" font-family="'ArialMT'" font-size="7.6838">T</tspan></text>
</svg>
