<?xml version="1.0" encoding="utf-8"?>
<!-- Generator: Adobe Illustrator 16.2.0, SVG Export Plug-In . SVG Version: 6.00 Build 0)  -->
<!DOCTYPE svg PUBLIC "-//W3C//DTD SVG 1.1//EN" "http://www.w3.org/Graphics/SVG/1.1/DTD/svg11.dtd">
<svg version="1.1" id="Слой_1" xmlns="http://www.w3.org/2000/svg" xmlns:xlink="http://www.w3.org/1999/xlink" x="0px" y="0px"
	 width="32px" height="42px" viewBox="0 0 32 42" enable-background="new 0 0 32 42" xml:space="preserve">
<path fill-rule="evenodd" clip-rule="evenodd" fill="#E2F0F5" d="M2.575,0h26.811c1.416,0,2.574,1.159,2.574,2.575v36.656
	c0,1.416-1.158,2.574-2.574,2.574H2.575C1.158,41.806,0,40.647,0,39.231V2.575C0,1.159,1.158,0,2.575,0z"/>
<path fill-rule="evenodd" clip-rule="evenodd" fill="#BDD2DA" d="M15.905,0h13.48c1.416,0,2.574,1.159,2.574,2.575v36.656
	c0,1.416-1.158,2.574-2.574,2.574h-13.48V0z"/>
<path fill-rule="evenodd" clip-rule="evenodd" fill="#F58349" d="M31.96,31.052v8.18c0,1.416-1.158,2.574-2.574,2.574H2.575
	C1.158,41.806,0,40.647,0,39.231v-8.18H31.96z"/>
<path fill-rule="evenodd" clip-rule="evenodd" fill="#D15D1F" d="M31.96,31.052v8.18c0,1.416-1.158,2.574-2.574,2.574h-13.48V31.052
	H31.96z"/>
<path fill-rule="evenodd" clip-rule="evenodd" fill="#F58349" d="M13.811,7.842h1.538c2.064,0,3.551,0.189,4.461,0.57
	c0.913,0.381,1.636,0.999,2.162,1.85c0.526,0.85,0.789,1.872,0.789,3.065c0,1.319-0.347,2.415-1.039,3.288
	c-0.688,0.873-1.626,1.481-2.813,1.824c-0.697,0.197-1.965,0.294-3.802,0.294v5.302h-3.578V11.406H8.728V7.829h5.083V7.842
	L13.811,7.842z M15.106,15.234h1.153c0.908,0,1.535-0.067,1.889-0.194c0.355-0.131,0.633-0.341,0.839-0.64
	c0.2-0.298,0.301-0.658,0.301-1.083c0-0.732-0.284-1.268-0.854-1.6c-0.413-0.25-1.185-0.377-2.306-0.377h-1.022V15.234z"/>
<path fill-rule="evenodd" clip-rule="evenodd" fill="#D15D1F" d="M15.933,7.848c1.763,0.033,3.054,0.22,3.877,0.564
	c0.912,0.381,1.635,0.999,2.161,1.85c0.526,0.85,0.789,1.872,0.789,3.064c0,1.32-0.347,2.416-1.038,3.288
	c-0.689,0.873-1.627,1.481-2.814,1.824c-0.587,0.166-1.58,0.26-2.975,0.287v-3.491h0.326c0.908,0,1.535-0.067,1.89-0.194
	c0.354-0.131,0.632-0.341,0.838-0.64c0.2-0.298,0.301-0.658,0.301-1.083c0-0.732-0.284-1.268-0.854-1.6
	c-0.412-0.25-1.184-0.377-2.305-0.377h-0.195V7.848z"/>
<text transform="matrix(1 0 0 1 5.6426 39.4932)"><tspan x="0" y="0" fill="#FFFFFF" font-family="'ArialMT'" font-size="7.6746">P</tspan><tspan x="5.119" y="0" fill="#FFFFFF" font-family="'ArialMT'" font-size="7.6746">P</tspan><tspan x="10.238" y="0" fill="#FFFFFF" font-family="'ArialMT'" font-size="7.6746">TX</tspan></text>
</svg>
