<?xml version="1.0" encoding="utf-8"?>
<!-- Generator: Adobe Illustrator 16.2.0, SVG Export Plug-In . SVG Version: 6.00 Build 0)  -->
<!DOCTYPE svg PUBLIC "-//W3C//DTD SVG 1.1//EN" "http://www.w3.org/Graphics/SVG/1.1/DTD/svg11.dtd">
<svg version="1.1" id="Слой_1" xmlns="http://www.w3.org/2000/svg" xmlns:xlink="http://www.w3.org/1999/xlink" x="0px" y="0px"
	 width="32px" height="42px" viewBox="0 0 32 42" enable-background="new 0 0 32 42" xml:space="preserve">
<path fill-rule="evenodd" clip-rule="evenodd" fill="#E2F0F5" d="M2.577,0h26.825c1.416,0,2.577,1.159,2.577,2.577v36.676
	c0,1.416-1.161,2.577-2.577,2.577H2.577C1.159,41.83,0,40.669,0,39.253V2.577C0,1.159,1.159,0,2.577,0z"/>
<path fill-rule="evenodd" clip-rule="evenodd" fill="#BDD2DA" d="M15.915,0h13.487c1.416,0,2.577,1.159,2.577,2.577v36.676
	c0,1.416-1.161,2.577-2.577,2.577H15.915V0z"/>
<rect x="6.313" y="5.96" fill-rule="evenodd" clip-rule="evenodd" fill="#3A5365" width="19.075" height="19.075"/>
<rect x="15.877" y="5.96" fill-rule="evenodd" clip-rule="evenodd" fill="#224156" width="9.511" height="19.075"/>
<rect x="8.543" y="8.19" fill-rule="evenodd" clip-rule="evenodd" fill="#E2F0F5" width="14.613" height="14.613"/>
<rect x="15.877" y="8.19" fill-rule="evenodd" clip-rule="evenodd" fill="#BDD2DA" width="7.279" height="14.613"/>
<path fill-rule="evenodd" clip-rule="evenodd" fill="#3A5365" d="M31.979,31.069v8.184c0,1.416-1.161,2.577-2.577,2.577H2.577
	C1.159,41.83,0,40.669,0,39.253v-8.184H31.979z"/>
<path fill-rule="evenodd" clip-rule="evenodd" fill="#224156" d="M31.979,31.069v8.184c0,1.416-1.161,2.577-2.577,2.577H15.915
	V31.069H31.979z"/>
<text transform="matrix(0.9989 0 0 1 10.3179 39.5117)"><tspan x="0" y="0" fill="#FFFFFF" font-family="'ArialMT'" font-size="7.6787">R</tspan><tspan x="5.545" y="0" fill="#FFFFFF" font-family="'ArialMT'" font-size="7.6787">TF</tspan></text>
<rect x="9.856" y="9.805" fill-rule="evenodd" clip-rule="evenodd" fill="#3A5365" width="12.205" height="1.271"/>
<rect x="15.954" y="9.806" fill-rule="evenodd" clip-rule="evenodd" fill="#224156" width="6.107" height="1.271"/>
<rect x="9.856" y="12.396" fill-rule="evenodd" clip-rule="evenodd" fill="#3A5365" width="12.205" height="1.272"/>
<rect x="15.954" y="12.396" fill-rule="evenodd" clip-rule="evenodd" fill="#224156" width="6.107" height="1.272"/>
<rect x="9.856" y="15.018" fill-rule="evenodd" clip-rule="evenodd" fill="#3A5365" width="12.205" height="1.271"/>
<rect x="15.954" y="15.018" fill-rule="evenodd" clip-rule="evenodd" fill="#224156" width="6.107" height="1.272"/>
<rect x="9.856" y="17.609" fill-rule="evenodd" clip-rule="evenodd" fill="#3A5365" width="12.205" height="1.272"/>
<rect x="15.954" y="17.609" fill-rule="evenodd" clip-rule="evenodd" fill="#224156" width="6.107" height="1.272"/>
<rect x="9.856" y="20.153" fill-rule="evenodd" clip-rule="evenodd" fill="#3A5365" width="4.834" height="1.272"/>
</svg>
