<?xml version="1.0" encoding="utf-8"?>
<!-- Generator: Adobe Illustrator 16.2.0, SVG Export Plug-In . SVG Version: 6.00 Build 0)  -->
<!DOCTYPE svg PUBLIC "-//W3C//DTD SVG 1.1//EN" "http://www.w3.org/Graphics/SVG/1.1/DTD/svg11.dtd">
<svg version="1.1" id="Слой_1" xmlns="http://www.w3.org/2000/svg" xmlns:xlink="http://www.w3.org/1999/xlink" x="0px" y="0px"
	 width="32px" height="42px" viewBox="0 0 32 42" enable-background="new 0 0 32 42" xml:space="preserve">
<path fill-rule="evenodd" clip-rule="evenodd" fill="#E2F0F5" d="M2.58,0h26.863c1.419,0,2.58,1.161,2.58,2.58v36.729
	c0,1.419-1.161,2.579-2.58,2.579H2.58c-1.419,0-2.58-1.16-2.58-2.579V2.58C0,1.161,1.161,0,2.58,0z"/>
<path fill-rule="evenodd" clip-rule="evenodd" fill="#BDD2DA" d="M15.937,0h13.507c1.419,0,2.58,1.161,2.58,2.58v36.729
	c0,1.419-1.161,2.579-2.58,2.579H15.937V0z"/>
<path fill-rule="evenodd" clip-rule="evenodd" fill="#E68428" d="M32.023,31.113v8.195c0,1.419-1.161,2.579-2.58,2.579H2.58
	c-1.419,0-2.58-1.16-2.58-2.579v-8.195H32.023z"/>
<path fill-rule="evenodd" clip-rule="evenodd" fill="#CA731C" d="M32.023,31.113v8.195c0,1.419-1.161,2.579-2.58,2.579H15.937
	V31.113H32.023z"/>
<rect x="6.39" y="5.512" fill-rule="evenodd" clip-rule="evenodd" fill="#E68428" width="19.168" height="19.168"/>
<rect x="16.002" y="5.512" fill-rule="evenodd" clip-rule="evenodd" fill="#CA731C" width="9.557" height="19.168"/>
<rect x="8.632" y="7.753" fill-rule="evenodd" clip-rule="evenodd" fill="#E2F0F5" width="14.685" height="14.686"/>
<rect x="16.002" y="7.753" fill-rule="evenodd" clip-rule="evenodd" fill="#BDD2DA" width="7.315" height="14.686"/>
<text transform="matrix(1 0 0 1 8.3813 39.5703)"><tspan x="0" y="0" fill="#FFFFFF" font-family="'ArialMT'" font-size="7.6897">S</tspan><tspan x="5.129" y="0" fill="#FFFFFF" font-family="'ArialMT'" font-size="7.6897">VG</tspan></text>
<path fill-rule="evenodd" clip-rule="evenodd" fill="#E68428" d="M21.601,17.506c0.172,0.361,0.019,0.793-0.342,0.965
	c-0.361,0.171-0.793,0.019-0.966-0.342c-0.731-1.537-1.732-2.533-2.809-3.015c-0.532-0.238-1.085-0.352-1.632-0.344
	c-0.542,0.007-1.087,0.138-1.611,0.387c-1.061,0.505-2.017,1.501-2.672,2.965c-0.162,0.364-0.589,0.528-0.953,0.365
	c-0.364-0.162-0.528-0.589-0.365-0.954c0.805-1.798,2.012-3.037,3.369-3.684c0.706-0.336,1.456-0.512,2.215-0.523
	c0.755-0.011,1.512,0.144,2.238,0.469C19.453,14.413,20.712,15.641,21.601,17.506z"/>
<path fill-rule="evenodd" clip-rule="evenodd" fill="#E68428" d="M10.948,16.261c0.431,0,0.821,0.175,1.103,0.457v0
	c0.282,0.282,0.457,0.672,0.457,1.103c0,0.431-0.175,0.821-0.457,1.103c-0.282,0.283-0.672,0.458-1.103,0.458
	c-0.43,0-0.82-0.175-1.102-0.458H9.845c-0.282-0.282-0.457-0.672-0.457-1.103c0-0.43,0.175-0.82,0.457-1.103v0
	C10.127,16.436,10.518,16.261,10.948,16.261L10.948,16.261z M11.847,16.922L11.847,16.922c-0.23-0.23-0.548-0.372-0.898-0.372
	c-0.351,0-0.668,0.142-0.898,0.372l0,0c-0.23,0.229-0.372,0.547-0.372,0.898c0,0.351,0.142,0.669,0.372,0.899l0,0
	c0.23,0.229,0.547,0.372,0.898,0.372c0.351,0,0.668-0.143,0.898-0.372c0.229-0.23,0.372-0.548,0.372-0.899
	C12.219,17.47,12.076,17.152,11.847,16.922z"/>
<path fill-rule="evenodd" clip-rule="evenodd" fill="#E68428" d="M20.989,16.261c0.431,0,0.82,0.175,1.103,0.457v0
	c0.282,0.282,0.457,0.672,0.457,1.103c0,0.431-0.175,0.821-0.457,1.103c-0.282,0.283-0.672,0.458-1.103,0.458
	s-0.82-0.175-1.103-0.458h-0.001c-0.282-0.282-0.457-0.672-0.457-1.103c0-0.43,0.175-0.82,0.457-1.103v0
	C20.168,16.436,20.559,16.261,20.989,16.261L20.989,16.261z M21.888,16.922L21.888,16.922c-0.229-0.23-0.548-0.372-0.898-0.372
	c-0.352,0-0.669,0.142-0.899,0.372l0,0c-0.229,0.229-0.371,0.547-0.371,0.898c0,0.351,0.142,0.669,0.371,0.899l0,0
	c0.23,0.229,0.548,0.372,0.899,0.372c0.351,0,0.669-0.143,0.898-0.372c0.229-0.23,0.372-0.548,0.372-0.899
	C22.26,17.47,22.117,17.152,21.888,16.922z"/>
<rect x="7.966" y="14.288" transform="matrix(-0.1988 0.98 -0.98 -0.1988 28.0706 6.2062)" fill-rule="evenodd" clip-rule="evenodd" fill="#E68428" width="7.065" height="0.577"/>
<circle fill-rule="evenodd" clip-rule="evenodd" fill="#E68428" cx="12.284" cy="10.632" r="0.713"/>
<rect x="16.769" y="14.289" transform="matrix(0.1988 0.98 -0.98 0.1988 30.5523 -8.2166)" fill-rule="evenodd" clip-rule="evenodd" fill="#E68428" width="7.065" height="0.577"/>
<circle fill-rule="evenodd" clip-rule="evenodd" fill="#E68428" cx="19.517" cy="10.632" r="0.713"/>
</svg>
