<?xml version="1.0" encoding="utf-8"?>
<!-- Generator: Adobe Illustrator 16.2.0, SVG Export Plug-In . SVG Version: 6.00 Build 0)  -->
<!DOCTYPE svg PUBLIC "-//W3C//DTD SVG 1.1//EN" "http://www.w3.org/Graphics/SVG/1.1/DTD/svg11.dtd">
<svg version="1.1" id="Слой_1" xmlns="http://www.w3.org/2000/svg" xmlns:xlink="http://www.w3.org/1999/xlink" x="0px" y="0px"
	 width="32px" height="42px" viewBox="0 0 32 42" enable-background="new 0 0 32 42" xml:space="preserve">
<path fill-rule="evenodd" clip-rule="evenodd" fill="#E2F0F5" d="M2.58,0h26.861c1.419,0,2.579,1.161,2.579,2.581v36.725
	c0,1.419-1.16,2.579-2.579,2.579H2.58c-1.419,0-2.58-1.16-2.58-2.579V2.581C0,1.161,1.161,0,2.58,0z"/>
<path fill-rule="evenodd" clip-rule="evenodd" fill="#BDD2DA" d="M15.936,0h13.505c1.419,0,2.579,1.161,2.579,2.581v36.725
	c0,1.419-1.16,2.579-2.579,2.579H15.936V0z"/>
<path fill-rule="evenodd" clip-rule="evenodd" fill="#3377A8" d="M32.021,31.11v8.195c0,1.419-1.16,2.579-2.579,2.579H2.58
	c-1.419,0-2.58-1.16-2.58-2.579V31.11H32.021z"/>
<path fill-rule="evenodd" clip-rule="evenodd" fill="#0C618C" d="M32.021,31.11v8.195c0,1.419-1.16,2.579-2.579,2.579H15.936V31.11
	H32.021z"/>
<text transform="matrix(0.9989 0 0 1 8.5811 39.5674)"><tspan x="0" y="0" fill="#FFFFFF" font-family="'ArialMT'" font-size="7.689">T</tspan><tspan x="4.697" y="0" fill="#FFFFFF" font-family="'ArialMT'" font-size="7.689">GA</tspan></text>
<rect x="6.614" y="7.048" fill-rule="evenodd" clip-rule="evenodd" fill="#3377A8" width="18.424" height="18.424"/>
<rect x="15.852" y="7.048" fill-rule="evenodd" clip-rule="evenodd" fill="#0C618C" width="9.186" height="18.424"/>
<rect x="8.768" y="9.202" fill-rule="evenodd" clip-rule="evenodd" fill="#E2F0F5" width="14.116" height="14.116"/>
<rect x="15.852" y="9.202" fill-rule="evenodd" clip-rule="evenodd" fill="#BDD2DA" width="7.032" height="14.116"/>
<path fill-rule="evenodd" clip-rule="evenodd" fill="#0C618C" d="M10.931,11.956h4.711h0.427v0.428v4.711v0.428h-0.427h-4.711
	h-0.428v-0.428v-4.711v-0.428H10.931L10.931,11.956z M15.215,12.812h-3.856v3.856h3.856V12.812z"/>
<path fill-rule="evenodd" clip-rule="evenodd" fill="#0C618C" d="M18.912,16.994c-0.574,0-1.095,0.232-1.471,0.608
	c-0.376,0.377-0.608,0.897-0.608,1.471s0.232,1.094,0.608,1.47s0.896,0.608,1.471,0.608c0.573,0,1.094-0.232,1.471-0.608
	s0.608-0.896,0.608-1.47s-0.231-1.094-0.608-1.471C20.006,17.227,19.485,16.994,18.912,16.994L18.912,16.994z M16.837,16.998
	c0.531-0.53,1.265-0.859,2.075-0.859c0.81,0,1.543,0.329,2.075,0.859c0.532,0.531,0.86,1.265,0.86,2.076
	c0,0.81-0.328,1.544-0.86,2.075c-0.532,0.531-1.266,0.86-2.075,0.86c-0.811,0-1.544-0.329-2.075-0.86
	c-0.531-0.531-0.86-1.265-0.86-2.075C15.977,18.263,16.306,17.529,16.837,16.998z"/>
<path fill-rule="evenodd" clip-rule="evenodd" fill="#0C618C" d="M20.168,12.729l-0.639,2.962l-0.641,2.962l-0.156,0.722
	l-0.547-0.496l-2.246-2.036l-2.245-2.035l-0.548-0.496l0.703-0.226l2.886-0.927l2.886-0.927l0.703-0.227L20.168,12.729
	L20.168,12.729z M18.693,15.511l0.483-2.24l-2.182,0.701l-2.183,0.701l1.699,1.539l1.698,1.539L18.693,15.511z"/>
</svg>
