<?xml version="1.0" encoding="utf-8"?>
<!-- Generator: Adobe Illustrator 16.2.0, SVG Export Plug-In . SVG Version: 6.00 Build 0)  -->
<!DOCTYPE svg PUBLIC "-//W3C//DTD SVG 1.1//EN" "http://www.w3.org/Graphics/SVG/1.1/DTD/svg11.dtd">
<svg version="1.1" id="Слой_1" xmlns="http://www.w3.org/2000/svg" xmlns:xlink="http://www.w3.org/1999/xlink" x="0px" y="0px"
	 width="32px" height="42px" viewBox="0 0 32 42" enable-background="new 0 0 32 42" xml:space="preserve">
<path fill-rule="evenodd" clip-rule="evenodd" fill="#E2F0F5" d="M2.572,0H29.35c1.415,0,2.572,1.158,2.572,2.572v36.612
	c0,1.414-1.157,2.57-2.572,2.57H2.572C1.157,41.755,0,40.599,0,39.185V2.572C0,1.158,1.157,0,2.572,0z"/>
<path fill-rule="evenodd" clip-rule="evenodd" fill="#BDD2DA" d="M15.886,0H29.35c1.415,0,2.572,1.158,2.572,2.572v36.612
	c0,1.414-1.157,2.57-2.572,2.57H15.886V0z"/>
<path fill-rule="evenodd" clip-rule="evenodd" fill="#1E9D52" d="M31.922,31.015v8.17c0,1.414-1.157,2.57-2.572,2.57H2.572
	C1.157,41.755,0,40.599,0,39.185v-8.17H31.922z"/>
<path fill-rule="evenodd" clip-rule="evenodd" fill="#007E3A" d="M31.922,31.015v8.17c0,1.414-1.157,2.57-2.572,2.57H15.886v-10.74
	H31.922z"/>
<rect x="6.37" y="6.15" fill-rule="evenodd" clip-rule="evenodd" fill="#1E9D52" width="19.107" height="19.108"/>
<rect x="15.951" y="6.15" fill-rule="evenodd" clip-rule="evenodd" fill="#007E3A" width="9.526" height="19.108"/>
<rect x="8.604" y="8.384" fill-rule="evenodd" clip-rule="evenodd" fill="#E2F0F5" width="14.639" height="14.64"/>
<rect x="15.951" y="8.384" fill-rule="evenodd" clip-rule="evenodd" fill="#BDD2DA" width="7.292" height="14.64"/>
<text transform="matrix(1 0 0 1 9.9053 15.8062)"><tspan x="0" y="0" fill="#1E9D52" font-family="'ArialMT'" font-size="6.6126">T</tspan><tspan x="4.039" y="0" fill="#1E9D52" font-family="'ArialMT'" font-size="6.6126">XT</tspan></text>
<rect x="11.127" y="16.593" fill-rule="evenodd" clip-rule="evenodd" fill="#1E9D52" width="9.729" height="0.823"/>
<rect x="15.988" y="16.593" fill-rule="evenodd" clip-rule="evenodd" fill="#007E3A" width="4.868" height="0.823"/>
<rect x="11.127" y="18.269" fill-rule="evenodd" clip-rule="evenodd" fill="#1E9D52" width="9.729" height="0.822"/>
<rect x="15.988" y="18.269" fill-rule="evenodd" clip-rule="evenodd" fill="#007E3A" width="4.868" height="0.822"/>
<rect x="11.127" y="19.914" fill-rule="evenodd" clip-rule="evenodd" fill="#1E9D52" width="3.854" height="0.823"/>
<text transform="matrix(1 0 0 1 8.3159 39.4453)"><tspan x="0" y="0" fill="#FFFFFF" font-family="'ArialMT'" font-size="7.6653">T</tspan><tspan x="4.682" y="0" fill="#FFFFFF" font-family="'ArialMT'" font-size="7.6653">XT</tspan></text>
</svg>
