<?xml version="1.0" encoding="utf-8"?>
<!-- Generator: Adobe Illustrator 16.2.0, SVG Export Plug-In . SVG Version: 6.00 Build 0)  -->
<!DOCTYPE svg PUBLIC "-//W3C//DTD SVG 1.1//EN" "http://www.w3.org/Graphics/SVG/1.1/DTD/svg11.dtd">
<svg version="1.1" id="Слой_1" xmlns="http://www.w3.org/2000/svg" xmlns:xlink="http://www.w3.org/1999/xlink" x="0px" y="0px"
	 width="32px" height="42px" viewBox="0 0 32 42" enable-background="new 0 0 32 42" xml:space="preserve">
<path fill-rule="evenodd" clip-rule="evenodd" fill="#E2F0F5" d="M2.582,0H29.47c1.421,0,2.583,1.162,2.583,2.583v36.762
	c0,1.421-1.162,2.584-2.583,2.584H2.582C1.162,41.929,0,40.766,0,39.345V2.583C0,1.162,1.162,0,2.582,0z"/>
<path fill-rule="evenodd" clip-rule="evenodd" fill="#BDD2DA" d="M15.951,0H29.47c1.421,0,2.583,1.162,2.583,2.583v36.762
	c0,1.421-1.162,2.584-2.583,2.584H15.951V0z"/>
<path fill-rule="evenodd" clip-rule="evenodd" fill="#67BE68" d="M32.053,31.143v8.202c0,1.421-1.162,2.584-2.583,2.584H2.582
	C1.162,41.929,0,40.766,0,39.345v-8.202H32.053z"/>
<path fill-rule="evenodd" clip-rule="evenodd" fill="#499A4B" d="M32.053,31.143v8.202c0,1.421-1.162,2.584-2.583,2.584H15.951
	V31.143H32.053z"/>
<text transform="matrix(1 0 0 1 9.6172 39.6074)"><tspan x="0" y="0" fill="#FFFFFF" font-family="'ArialMT'" font-size="7.6969">X</tspan><tspan x="5.134" y="0" fill="#FFFFFF" font-family="'ArialMT'" font-size="7.6969">LS</tspan></text>
<path fill-rule="evenodd" clip-rule="evenodd" fill="#67BE68" d="M6.469,22.715l6.065-7.436c-2.587-3.417-4.91-6.515-4.885-6.589
	l6.24-0.11l1.955,2.641l2.111-2.586l6.239,0.056l-5.369,6.557l6.715,9.07h-6.128c0,0-1.731-2.265-3.864-5.068l-2.839,3.467
	C12.708,22.715,6.413,22.715,6.469,22.715z"/>
<path fill-rule="evenodd" clip-rule="evenodd" fill="#499A4B" d="M15.988,11.043l1.966-2.409l6.239,0.056l-5.369,6.557l6.715,9.07
	h-6.128c0,0-1.498-1.959-3.423-4.489V11.043z"/>
</svg>
