<?xml version="1.0" encoding="utf-8"?>
<!-- Generator: Adobe Illustrator 16.2.0, SVG Export Plug-In . SVG Version: 6.00 Build 0)  -->
<!DOCTYPE svg PUBLIC "-//W3C//DTD SVG 1.1//EN" "http://www.w3.org/Graphics/SVG/1.1/DTD/svg11.dtd">
<svg version="1.1" id="Слой_1" xmlns="http://www.w3.org/2000/svg" xmlns:xlink="http://www.w3.org/1999/xlink" x="0px" y="0px"
	 width="32px" height="42px" viewBox="0 0 32 42" enable-background="new 0 0 32 42" xml:space="preserve">
<path fill-rule="evenodd" clip-rule="evenodd" fill="#E2F0F5" d="M2.577,0h26.837c1.419,0,2.579,1.16,2.579,2.578v36.694
	c0,1.417-1.16,2.578-2.579,2.578H2.577C1.159,41.85,0,40.688,0,39.271V2.578C0,1.16,1.159,0,2.577,0z"/>
<path fill-rule="evenodd" clip-rule="evenodd" fill="#BDD2DA" d="M15.921,0h13.493c1.419,0,2.579,1.16,2.579,2.578v36.694
	c0,1.417-1.16,2.578-2.579,2.578H15.921V0z"/>
<path fill-rule="evenodd" clip-rule="evenodd" fill="#67BE68" d="M31.993,31.084v8.188c0,1.417-1.16,2.578-2.579,2.578H2.577
	C1.159,41.85,0,40.688,0,39.271v-8.188H31.993z"/>
<path fill-rule="evenodd" clip-rule="evenodd" fill="#499A4B" d="M31.993,31.084v8.188c0,1.417-1.16,2.578-2.579,2.578H15.921
	V31.084H31.993z"/>
<text transform="matrix(1 0 0 1 7.2861 39.5332)"><tspan x="0" y="0" fill="#FFFFFF" font-family="'ArialMT'" font-size="7.6825">X</tspan><tspan x="5.124" y="0" fill="#FFFFFF" font-family="'ArialMT'" font-size="7.6825">LSX</tspan></text>
<path fill-rule="evenodd" clip-rule="evenodd" fill="#67BE68" d="M6.457,22.673l6.054-7.423c-2.582-3.411-4.9-6.503-4.876-6.577
	l6.228-0.11l1.952,2.636l2.106-2.581l6.228,0.055l-5.358,6.544l6.702,9.053h-6.117c0,0-1.728-2.26-3.856-5.058l-2.833,3.46
	C12.684,22.673,6.401,22.673,6.457,22.673z"/>
<path fill-rule="evenodd" clip-rule="evenodd" fill="#499A4B" d="M15.958,11.023l1.961-2.404l6.228,0.055l-5.358,6.544l6.702,9.053
	h-6.117c0,0-1.494-1.955-3.416-4.479V11.023z"/>
</svg>
